<svg width="22" height="22" viewBox="0 0 22 22" fill="none" xmlns="http://www.w3.org/2000/svg">
<path d="M21.099 3.66442L17.7972 0.362632C17.565 0.130442 17.25 0 16.9217 0C16.5933 0 16.2784 0.130442 16.0461 0.362632L6.14077 10.268C5.90859 10.5002 5.77815 10.8151 5.77813 11.1435V14.4453C5.77814 14.7737 5.90859 15.0886 6.14079 15.3208C6.37299 15.553 6.68792 15.6835 7.0163 15.6835H10.3181C10.4807 15.6835 10.6417 15.6515 10.7919 15.5892C10.9421 15.527 11.0786 15.4358 11.1936 15.3208L21.099 5.41547C21.214 5.3005 21.3052 5.164 21.3674 5.01378C21.4296 4.86356 21.4617 4.70255 21.4617 4.53995C21.4617 4.37735 21.4296 4.21634 21.3674 4.06611C21.3052 3.91589 21.214 3.77939 21.099 3.66442ZM16.9217 2.98919L18.4724 4.53995L17.3344 5.67796L15.7837 4.12722L16.9217 2.98919ZM9.80521 13.2071H8.25447V11.6564L14.0326 5.87828L15.5833 7.42901L9.80521 13.2071ZM20.6362 11.2022V19.398C20.6356 19.9451 20.4179 20.4696 20.0311 20.8565C19.6442 21.2434 19.1197 21.461 18.5726 21.4616H2.06362C1.5165 21.461 0.991971 21.2434 0.605101 20.8565C0.218232 20.4696 0.000617196 19.9451 0 19.398V2.88905C0.000612835 2.34194 0.218226 1.8174 0.605097 1.43053C0.991967 1.04366 1.5165 0.826048 2.06362 0.825435H10.2594C10.5878 0.825435 10.9028 0.955885 11.135 1.18809C11.3672 1.42029 11.4976 1.73522 11.4976 2.06361C11.4976 2.39199 11.3672 2.70692 11.135 2.93912C10.9028 3.17133 10.5878 3.30178 10.2594 3.30178H2.47634V18.9853H18.1598V11.2022C18.1598 10.8738 18.2903 10.5589 18.5225 10.3266C18.7547 10.0944 19.0696 9.964 19.398 9.964C19.7264 9.964 20.0413 10.0944 20.2735 10.3266C20.5057 10.5589 20.6362 10.8738 20.6362 11.2022Z" fill="#47A695"/>
</svg>
